# xmcd
#
# Track frame offsets:
# 182
# 9830
# 18175
# 28765
# 41062
# 50895
# 63540
# 75030
# 85787
# 97557
# 107992
# 119585
# 131302
# 146320
# 162365
# 176905
# 190092
# 203977
# 216035
# 229122
#
# Disc length: 3227 seconds
#
#
# Revision: 0
# Processed by: cddbd v1.4PL0 Copyright (c) Steve Scherf et al.
# Submitted via: FreeRIP 2.35 
#
DISCID=020c9914
DTITLE=Charlie Rich cd 3 - The Many Sounds Of Charlie Rich
DYEAR=1900
DGENRE=Country
TTITLE0=Whirlwind
TTITLE1=Rebound
TTITLE2=C C Rider
TTITLE3=Big Man
TTITLE4=Now Everybody Knows
TTITLE5=Big Boss Man
TTITLE6=Easy Money
TTITLE7=Who Will The Next Fool Be
TTITLE8=There's Another Place I Can't Go
TTITLE9=Red Man
TTITLE10=Lady Love
TTITLE11=The Ways Of A Woman In Love
TTITLE12=A Woman Left Lonely
TTITLE13=That's The Way A Cowboy Rocks And Rolls
TTITLE14=On My Knees
TTITLE15=I've Got You Under My Skin
TTITLE16=Even A Fool Would Let Go
TTITLE17=H2)
TTITLE18=Beautiful Woman
TTITLE19=Spanish Eyes
EXTD=
EXTT0=
EXTT1=
EXTT2=
EXTT3=
EXTT4=
EXTT5=
EXTT6=
EXTT7=
EXTT8=
EXTT9=
EXTT10=
EXTT11=
EXTT12=
EXTT13=
EXTT14=
EXTT15=
EXTT16=
EXTT17=
EXTT18=
EXTT19=
PLAYORDER=
